<svg xmlns="http://www.w3.org/2000/svg" version="1.0" viewBox="0 0 2000.000000 2000.000000" preserveAspectRatio="xMidYMid meet">
  <g transform="translate(0.000000,2000.000000) scale(0.100000,-0.100000)" fill="#ffffff" stroke="none">
    <path d="M2735 19989 c-402 -35 -844 -171 -1191 -365 -880 -495 -1449 -1377 -1534 -2379 -14 -166 -14 -14324 0 -14490 61 -714 365 -1370 870 -1875 505 -505 1161 -809 1875 -870 166 -14 14324 -14 14490 0 714 61 1370 365 1875 870 505 505 809 1161 870 1875 14 166 14 14324 0 14490 -61 714 -365 1370 -870 1875 -505 505 -1161 809 -1875 870 -150 12 -14363 11 -14510 -1z m13955 -7087 l0 -5549 -162 -43 c-170 -45 -240 -63 -683 -180 -148 -39 -344 -91 -435 -115 -91 -24 -295 -78 -455 -120 -159 -42 -346 -91 -415 -110 -519 -138 -700 -185 -714 -185 -15 0 -16 55 -16 639 l0 639 -27 6 c-16 3 -95 19 -178 35 -82 17 -413 83 -735 147 -322 64 -661 132 -755 150 -93 19 -179 36 -190 38 -11 2 -135 28 -275 56 -140 29 -309 63 -375 75 -66 13 -154 31 -195 39 -41 9 -132 28 -201 41 -69 13 -145 29 -170 34 -24 6 -127 27 -229 47 -317 62 -409 81 -600 118 -102 20 -214 43 -250 51 -36 8 -368 75 -737 149 -370 74 -677 137 -682 140 -8 5 -1263 259 -1736 351 -99 20 -196 40 -215 45 -19 6 -38 10 -42 10 -5 0 -8 -1204 -8 -2675 0 -1471 2 -2675 5 -2675 5 0 261 67 515 135 74 20 270 72 436 115 165 44 334 88 375 99 84 22 716 190 854 226 908 239 1041 274 1225 323 102 27 275 73 385 102 110 28 229 60 265 70 36 10 146 39 245 65 99 26 304 80 455 120 151 40 356 94 455 120 99 26 295 78 435 115 140 38 386 103 545 145 160 42 349 92 420 111 451 119 833 220 1365 360 135 36 295 78 355 95 61 16 214 56 340 90 233 61 680 179 945 249 132 35 286 76 713 189 l147 39 0 -877 0 -876 -182 -48 c-168 -43 -467 -122 -918 -242 -159 -42 -275 -73 -890 -235 -107 -28 -226 -60 -265 -70 -38 -10 -158 -42 -265 -70 -498 -132 -736 -195 -870 -230 -80 -21 -352 -93 -605 -160 -253 -67 -491 -130 -530 -140 -38 -10 -158 -42 -265 -70 -107 -28 -262 -70 -345 -91 -82 -22 -193 -52 -245 -65 -275 -73 -488 -129 -671 -178 -112 -30 -267 -71 -344 -91 -173 -45 -569 -150 -985 -260 -173 -46 -378 -100 -455 -120 -77 -20 -232 -61 -345 -92 -113 -30 -331 -87 -485 -128 -154 -40 -374 -98 -490 -129 -115 -31 -347 -92 -515 -136 -168 -45 -363 -96 -435 -115 -345 -92 -575 -153 -850 -225 -165 -43 -412 -109 -550 -145 -260 -69 -449 -119 -895 -237 -146 -38 -330 -87 -410 -108 -461 -122 -531 -140 -545 -140 -13 0 -15 596 -15 5549 l0 5550 53 15 c46 13 177 48 797 211 91 24 287 76 435 115 149 39 335 89 415 110 80 21 276 73 435 115 160 42 328 87 375 99 210 58 357 96 368 96 9 0 12 -147 12 -640 0 -352 2 -640 4 -640 5 0 1395 -278 2126 -425 344 -70 1284 -259 2090 -421 806 -162 1476 -298 1490 -304 14 -5 106 -25 205 -44 282 -55 1617 -324 1648 -331 l27 -7 0 2672 c0 2540 -1 2672 -17 2667 -22 -6 -542 -144 -763 -202 -91 -24 -286 -76 -435 -115 -148 -39 -335 -89 -415 -110 -140 -37 -529 -140 -890 -235 -96 -26 -206 -55 -245 -65 -38 -10 -158 -42 -265 -70 -107 -28 -262 -70 -345 -91 -82 -22 -193 -52 -245 -65 -88 -23 -266 -70 -620 -164 -80 -21 -188 -50 -240 -64 -52 -14 -171 -45 -265 -70 -93 -24 -249 -66 -345 -91 -390 -103 -639 -169 -985 -260 -154 -41 -350 -92 -435 -115 -85 -23 -281 -74 -435 -115 -154 -40 -372 -98 -485 -128 -113 -31 -320 -85 -460 -122 -140 -36 -399 -105 -575 -151 -176 -47 -439 -117 -585 -155 -146 -39 -339 -90 -430 -114 -91 -24 -295 -78 -455 -120 -279 -73 -491 -130 -527 -141 -17 -5 -18 41 -18 870 l0 874 33 11 c27 9 377 102 442 118 25 6 612 161 805 213 80 21 285 75 455 120 171 45 411 109 535 141 403 107 588 156 1015 269 649 171 1009 266 1255 331 417 111 593 157 1035 274 242 64 496 131 565 150 69 18 197 52 285 75 88 23 216 57 285 75 69 19 256 68 415 110 160 42 346 91 415 110 69 18 274 72 455 120 182 48 377 99 435 115 99 27 308 82 945 250 516 136 651 172 755 200 58 15 186 49 285 75 99 25 227 59 285 75 58 16 175 47 260 69 85 23 283 75 440 116 157 42 346 92 420 111 74 20 200 53 280 74 189 51 602 160 755 200 346 91 460 122 464 126 2 2 15 4 28 4 l23 0 0 -5548z"></path>
  </g>
</svg>
